<mxfile host="app.diagrams.net" modified="2020-10-21T19:44:29.519Z" agent="5.0 (Macintosh; Intel Mac OS X 10_15_7) AppleWebKit/605.1.15 (KHTML, like Gecko) Version/14.0 Safari/605.1.15" etag="1-T5ryZyNeBM7dIrxK6B" version="13.8.1" type="github" pages="3">
  <diagram id="PBJe3xCFQkrLJ3TgRgL_" name="Qasim">
    <mxGraphModel dx="1113" dy="781" grid="1" gridSize="10" guides="1" tooltips="1" connect="1" arrows="1" fold="1" page="1" pageScale="1" pageWidth="1654" pageHeight="1169" math="0" shadow="0">
      <root>
        <mxCell id="0" />
        <mxCell id="1" parent="0" />
        <mxCell id="jdo_Bs8H3Nefda1nTduL-1" value="Users" style="whiteSpace=wrap;html=1;align=center;" parent="1" vertex="1">
          <mxGeometry x="750" y="300" width="100" height="40" as="geometry" />
        </mxCell>
        <mxCell id="jdo_Bs8H3Nefda1nTduL-7" value="Has permissions of" style="shape=rhombus;double=1;perimeter=rhombusPerimeter;whiteSpace=wrap;html=1;align=center;" parent="1" vertex="1">
          <mxGeometry x="860" y="360" width="140" height="80" as="geometry" />
        </mxCell>
        <mxCell id="jdo_Bs8H3Nefda1nTduL-9" value="Seller" style="shape=ext;margin=3;double=1;whiteSpace=wrap;html=1;align=center;" parent="1" vertex="1">
          <mxGeometry x="1027" y="470" width="100" height="40" as="geometry" />
        </mxCell>
        <mxCell id="jdo_Bs8H3Nefda1nTduL-10" value="Buyer" style="shape=ext;margin=3;double=1;whiteSpace=wrap;html=1;align=center;" parent="1" vertex="1">
          <mxGeometry x="480" y="470" width="100" height="40" as="geometry" />
        </mxCell>
        <mxCell id="jdo_Bs8H3Nefda1nTduL-11" value="Has permissions of" style="shape=rhombus;double=1;perimeter=rhombusPerimeter;whiteSpace=wrap;html=1;align=center;" parent="1" vertex="1">
          <mxGeometry x="600" y="360" width="140" height="80" as="geometry" />
        </mxCell>
        <mxCell id="jdo_Bs8H3Nefda1nTduL-14" value="" style="edgeStyle=entityRelationEdgeStyle;fontSize=12;html=1;endArrow=ERzeroToOne;endFill=1;rounded=1;exitX=0.5;exitY=1;exitDx=0;exitDy=0;" parent="1" source="jdo_Bs8H3Nefda1nTduL-7" target="jdo_Bs8H3Nefda1nTduL-9" edge="1">
          <mxGeometry width="100" height="100" relative="1" as="geometry">
            <mxPoint x="1040" y="430" as="sourcePoint" />
            <mxPoint x="970" y="500" as="targetPoint" />
          </mxGeometry>
        </mxCell>
        <mxCell id="jdo_Bs8H3Nefda1nTduL-17" value="" style="edgeStyle=entityRelationEdgeStyle;fontSize=12;html=1;endArrow=ERmandOne;entryX=0;entryY=0.5;entryDx=0;entryDy=0;exitX=1;exitY=0;exitDx=0;exitDy=0;" parent="1" source="jdo_Bs8H3Nefda1nTduL-11" target="jdo_Bs8H3Nefda1nTduL-1" edge="1">
          <mxGeometry width="100" height="100" relative="1" as="geometry">
            <mxPoint x="530" y="300" as="sourcePoint" />
            <mxPoint x="630" y="200" as="targetPoint" />
          </mxGeometry>
        </mxCell>
        <mxCell id="jdo_Bs8H3Nefda1nTduL-18" value="" style="edgeStyle=entityRelationEdgeStyle;fontSize=12;html=1;endArrow=ERmandOne;entryX=1;entryY=0.25;entryDx=0;entryDy=0;exitX=0.5;exitY=1;exitDx=0;exitDy=0;" parent="1" source="jdo_Bs8H3Nefda1nTduL-11" target="jdo_Bs8H3Nefda1nTduL-10" edge="1">
          <mxGeometry width="100" height="100" relative="1" as="geometry">
            <mxPoint x="820" y="610" as="sourcePoint" />
            <mxPoint x="380" y="350" as="targetPoint" />
          </mxGeometry>
        </mxCell>
        <mxCell id="jdo_Bs8H3Nefda1nTduL-20" value="Creates" style="shape=rhombus;perimeter=rhombusPerimeter;whiteSpace=wrap;html=1;align=center;" parent="1" vertex="1">
          <mxGeometry x="1127" y="570" width="120" height="60" as="geometry" />
        </mxCell>
        <mxCell id="jdo_Bs8H3Nefda1nTduL-21" value="Auction listing" style="whiteSpace=wrap;html=1;align=center;" parent="1" vertex="1">
          <mxGeometry x="865" y="660" width="100" height="40" as="geometry" />
        </mxCell>
        <mxCell id="jdo_Bs8H3Nefda1nTduL-22" value="" style="edgeStyle=entityRelationEdgeStyle;fontSize=12;html=1;endArrow=ERzeroToMany;endFill=1;entryX=1;entryY=0.5;entryDx=0;entryDy=0;exitX=0;exitY=1;exitDx=0;exitDy=0;" parent="1" source="jdo_Bs8H3Nefda1nTduL-20" target="jdo_Bs8H3Nefda1nTduL-21" edge="1">
          <mxGeometry width="100" height="100" relative="1" as="geometry">
            <mxPoint x="1190" y="620" as="sourcePoint" />
            <mxPoint x="1330" y="650" as="targetPoint" />
          </mxGeometry>
        </mxCell>
        <mxCell id="jdo_Bs8H3Nefda1nTduL-25" value="" style="edgeStyle=entityRelationEdgeStyle;fontSize=12;html=1;endArrow=ERmandOne;entryX=1;entryY=0.5;entryDx=0;entryDy=0;exitX=0;exitY=0;exitDx=0;exitDy=0;" parent="1" source="jdo_Bs8H3Nefda1nTduL-7" target="jdo_Bs8H3Nefda1nTduL-1" edge="1">
          <mxGeometry width="100" height="100" relative="1" as="geometry">
            <mxPoint x="1093" y="205" as="sourcePoint" />
            <mxPoint x="1030" y="120" as="targetPoint" />
          </mxGeometry>
        </mxCell>
        <mxCell id="jdo_Bs8H3Nefda1nTduL-26" value="AuctionID" style="ellipse;whiteSpace=wrap;html=1;align=center;fontStyle=4;" parent="1" vertex="1">
          <mxGeometry x="1190" y="740" width="100" height="40" as="geometry" />
        </mxCell>
        <mxCell id="jdo_Bs8H3Nefda1nTduL-27" value="" style="endArrow=none;html=1;rounded=0;entryX=0.5;entryY=0;entryDx=0;entryDy=0;exitX=0.5;exitY=1;exitDx=0;exitDy=0;" parent="1" source="jdo_Bs8H3Nefda1nTduL-21" target="jdo_Bs8H3Nefda1nTduL-26" edge="1">
          <mxGeometry relative="1" as="geometry">
            <mxPoint x="1270" y="460" as="sourcePoint" />
            <mxPoint x="1430" y="460" as="targetPoint" />
          </mxGeometry>
        </mxCell>
        <mxCell id="jdo_Bs8H3Nefda1nTduL-28" value="" style="edgeStyle=entityRelationEdgeStyle;fontSize=12;html=1;endArrow=ERone;endFill=1;entryX=1;entryY=0.5;entryDx=0;entryDy=0;exitX=0;exitY=0;exitDx=0;exitDy=0;" parent="1" source="jdo_Bs8H3Nefda1nTduL-20" target="jdo_Bs8H3Nefda1nTduL-9" edge="1">
          <mxGeometry width="100" height="100" relative="1" as="geometry">
            <mxPoint x="980" y="760" as="sourcePoint" />
            <mxPoint x="1080" y="660" as="targetPoint" />
          </mxGeometry>
        </mxCell>
        <mxCell id="jdo_Bs8H3Nefda1nTduL-29" value="Product Name" style="ellipse;whiteSpace=wrap;html=1;align=center;" parent="1" vertex="1">
          <mxGeometry x="1190" y="795" width="100" height="40" as="geometry" />
        </mxCell>
        <mxCell id="jdo_Bs8H3Nefda1nTduL-30" value="" style="endArrow=none;html=1;rounded=0;entryX=0.5;entryY=1;entryDx=0;entryDy=0;exitX=0.5;exitY=0;exitDx=0;exitDy=0;" parent="1" source="jdo_Bs8H3Nefda1nTduL-29" target="jdo_Bs8H3Nefda1nTduL-21" edge="1">
          <mxGeometry relative="1" as="geometry">
            <mxPoint x="850" y="770" as="sourcePoint" />
            <mxPoint x="1010" y="770" as="targetPoint" />
          </mxGeometry>
        </mxCell>
        <mxCell id="jdo_Bs8H3Nefda1nTduL-31" value="Product description" style="ellipse;whiteSpace=wrap;html=1;align=center;" parent="1" vertex="1">
          <mxGeometry x="1070" y="770" width="100" height="40" as="geometry" />
        </mxCell>
        <mxCell id="jdo_Bs8H3Nefda1nTduL-34" value="" style="endArrow=none;html=1;rounded=0;entryX=0.5;entryY=1;entryDx=0;entryDy=0;exitX=1;exitY=0;exitDx=0;exitDy=0;" parent="1" source="jdo_Bs8H3Nefda1nTduL-31" target="jdo_Bs8H3Nefda1nTduL-21" edge="1">
          <mxGeometry relative="1" as="geometry">
            <mxPoint x="1040" y="810" as="sourcePoint" />
            <mxPoint x="1030" y="750" as="targetPoint" />
          </mxGeometry>
        </mxCell>
        <mxCell id="jdo_Bs8H3Nefda1nTduL-37" value="" style="edgeStyle=entityRelationEdgeStyle;fontSize=12;html=1;endArrow=ERzeroToMany;endFill=1;exitX=1;exitY=1;exitDx=0;exitDy=0;entryX=0;entryY=0.25;entryDx=0;entryDy=0;" parent="1" source="S4HPG_5OyXTRfToOtr7x-22" target="jdo_Bs8H3Nefda1nTduL-21" edge="1">
          <mxGeometry width="100" height="100" relative="1" as="geometry">
            <mxPoint x="680" y="630" as="sourcePoint" />
            <mxPoint x="850" y="630" as="targetPoint" />
          </mxGeometry>
        </mxCell>
        <mxCell id="jdo_Bs8H3Nefda1nTduL-38" value="" style="edgeStyle=entityRelationEdgeStyle;fontSize=12;html=1;endArrow=ERzeroToMany;endFill=1;exitX=0;exitY=0.5;exitDx=0;exitDy=0;entryX=1;entryY=0.75;entryDx=0;entryDy=0;" parent="1" source="S4HPG_5OyXTRfToOtr7x-22" target="jdo_Bs8H3Nefda1nTduL-10" edge="1">
          <mxGeometry width="100" height="100" relative="1" as="geometry">
            <mxPoint x="590" y="615" as="sourcePoint" />
            <mxPoint x="510" y="510" as="targetPoint" />
          </mxGeometry>
        </mxCell>
        <mxCell id="jdo_Bs8H3Nefda1nTduL-39" value="Bid price" style="ellipse;whiteSpace=wrap;html=1;align=center;" parent="1" vertex="1">
          <mxGeometry x="580" y="680" width="100" height="40" as="geometry" />
        </mxCell>
        <mxCell id="jdo_Bs8H3Nefda1nTduL-40" value="" style="endArrow=none;html=1;rounded=0;entryX=0.5;entryY=0;entryDx=0;entryDy=0;exitX=0.5;exitY=1;exitDx=0;exitDy=0;" parent="1" source="S4HPG_5OyXTRfToOtr7x-22" target="jdo_Bs8H3Nefda1nTduL-39" edge="1">
          <mxGeometry relative="1" as="geometry">
            <mxPoint x="690" y="610" as="sourcePoint" />
            <mxPoint x="830" y="600" as="targetPoint" />
          </mxGeometry>
        </mxCell>
        <mxCell id="jdo_Bs8H3Nefda1nTduL-41" value="BidID" style="ellipse;whiteSpace=wrap;html=1;align=center;fontStyle=4;" parent="1" vertex="1">
          <mxGeometry x="470" y="660" width="100" height="40" as="geometry" />
        </mxCell>
        <mxCell id="jdo_Bs8H3Nefda1nTduL-42" value="" style="endArrow=none;html=1;rounded=0;exitX=0.5;exitY=0;exitDx=0;exitDy=0;entryX=0;entryY=1;entryDx=0;entryDy=0;" parent="1" source="jdo_Bs8H3Nefda1nTduL-41" target="S4HPG_5OyXTRfToOtr7x-22" edge="1">
          <mxGeometry relative="1" as="geometry">
            <mxPoint x="750" y="610" as="sourcePoint" />
            <mxPoint x="625.9999999999998" y="632.9999999999998" as="targetPoint" />
          </mxGeometry>
        </mxCell>
        <mxCell id="jdo_Bs8H3Nefda1nTduL-43" value="End date" style="ellipse;whiteSpace=wrap;html=1;align=center;" parent="1" vertex="1">
          <mxGeometry x="865" y="805" width="90" height="30" as="geometry" />
        </mxCell>
        <mxCell id="jdo_Bs8H3Nefda1nTduL-44" value="" style="endArrow=none;html=1;rounded=0;entryX=0.5;entryY=1;entryDx=0;entryDy=0;exitX=0.5;exitY=0;exitDx=0;exitDy=0;" parent="1" source="jdo_Bs8H3Nefda1nTduL-43" target="jdo_Bs8H3Nefda1nTduL-21" edge="1">
          <mxGeometry relative="1" as="geometry">
            <mxPoint x="955.3553390593274" y="815.8578643762689" as="sourcePoint" />
            <mxPoint x="880" y="710" as="targetPoint" />
          </mxGeometry>
        </mxCell>
        <mxCell id="jdo_Bs8H3Nefda1nTduL-45" value="Belongs to" style="shape=rhombus;perimeter=rhombusPerimeter;whiteSpace=wrap;html=1;align=center;" parent="1" vertex="1">
          <mxGeometry x="707" y="840" width="120" height="60" as="geometry" />
        </mxCell>
        <mxCell id="jdo_Bs8H3Nefda1nTduL-46" value="Product/Auction Category" style="whiteSpace=wrap;html=1;align=center;" parent="1" vertex="1">
          <mxGeometry x="870" y="950" width="100" height="40" as="geometry" />
        </mxCell>
        <mxCell id="jdo_Bs8H3Nefda1nTduL-49" value="" style="edgeStyle=entityRelationEdgeStyle;fontSize=12;html=1;endArrow=ERzeroToMany;endFill=1;exitX=0.5;exitY=0;exitDx=0;exitDy=0;entryX=0;entryY=0.75;entryDx=0;entryDy=0;" parent="1" source="jdo_Bs8H3Nefda1nTduL-45" edge="1" target="jdo_Bs8H3Nefda1nTduL-21">
          <mxGeometry width="100" height="100" relative="1" as="geometry">
            <mxPoint x="760" y="810" as="sourcePoint" />
            <mxPoint x="820" y="690" as="targetPoint" />
          </mxGeometry>
        </mxCell>
        <mxCell id="jdo_Bs8H3Nefda1nTduL-50" value="" style="edgeStyle=entityRelationEdgeStyle;fontSize=12;html=1;endArrow=ERoneToMany;exitX=1;exitY=1;exitDx=0;exitDy=0;" parent="1" target="jdo_Bs8H3Nefda1nTduL-46" edge="1" source="jdo_Bs8H3Nefda1nTduL-45">
          <mxGeometry width="100" height="100" relative="1" as="geometry">
            <mxPoint x="790" y="860" as="sourcePoint" />
            <mxPoint x="940" y="690" as="targetPoint" />
          </mxGeometry>
        </mxCell>
        <mxCell id="S4HPG_5OyXTRfToOtr7x-1" value="CategoryID" style="ellipse;whiteSpace=wrap;html=1;align=center;fontStyle=4;" vertex="1" parent="1">
          <mxGeometry x="1027" y="1050" width="100" height="40" as="geometry" />
        </mxCell>
        <mxCell id="S4HPG_5OyXTRfToOtr7x-2" value="Category name" style="ellipse;whiteSpace=wrap;html=1;align=center;" vertex="1" parent="1">
          <mxGeometry x="910" y="1050" width="100" height="40" as="geometry" />
        </mxCell>
        <mxCell id="S4HPG_5OyXTRfToOtr7x-4" value="Sub-category" style="ellipse;whiteSpace=wrap;html=1;align=center;" vertex="1" parent="1">
          <mxGeometry x="790" y="1050" width="100" height="40" as="geometry" />
        </mxCell>
        <mxCell id="S4HPG_5OyXTRfToOtr7x-5" value="Sub-categoryID" style="ellipse;whiteSpace=wrap;html=1;align=center;fontStyle=4;" vertex="1" parent="1">
          <mxGeometry x="1137" y="1050" width="100" height="40" as="geometry" />
        </mxCell>
        <mxCell id="S4HPG_5OyXTRfToOtr7x-6" value="" style="endArrow=none;html=1;rounded=0;exitX=0.5;exitY=1;exitDx=0;exitDy=0;entryX=0.5;entryY=0;entryDx=0;entryDy=0;" edge="1" parent="1" source="jdo_Bs8H3Nefda1nTduL-46" target="S4HPG_5OyXTRfToOtr7x-5">
          <mxGeometry relative="1" as="geometry">
            <mxPoint x="840" y="1010" as="sourcePoint" />
            <mxPoint x="1000" y="1010" as="targetPoint" />
          </mxGeometry>
        </mxCell>
        <mxCell id="S4HPG_5OyXTRfToOtr7x-9" value="" style="endArrow=none;html=1;rounded=0;exitX=0.5;exitY=1;exitDx=0;exitDy=0;" edge="1" parent="1" source="jdo_Bs8H3Nefda1nTduL-46" target="S4HPG_5OyXTRfToOtr7x-1">
          <mxGeometry relative="1" as="geometry">
            <mxPoint x="750" y="1010" as="sourcePoint" />
            <mxPoint x="887" y="1060" as="targetPoint" />
          </mxGeometry>
        </mxCell>
        <mxCell id="S4HPG_5OyXTRfToOtr7x-10" value="" style="endArrow=none;html=1;rounded=0;exitX=0.5;exitY=1;exitDx=0;exitDy=0;entryX=0.5;entryY=0;entryDx=0;entryDy=0;" edge="1" parent="1" source="jdo_Bs8H3Nefda1nTduL-46" target="S4HPG_5OyXTRfToOtr7x-2">
          <mxGeometry relative="1" as="geometry">
            <mxPoint x="760" y="1020" as="sourcePoint" />
            <mxPoint x="897" y="1070" as="targetPoint" />
          </mxGeometry>
        </mxCell>
        <mxCell id="S4HPG_5OyXTRfToOtr7x-11" value="" style="endArrow=none;html=1;rounded=0;exitX=0.5;exitY=1;exitDx=0;exitDy=0;entryX=0.623;entryY=0.049;entryDx=0;entryDy=0;entryPerimeter=0;" edge="1" parent="1" source="jdo_Bs8H3Nefda1nTduL-46" target="S4HPG_5OyXTRfToOtr7x-4">
          <mxGeometry relative="1" as="geometry">
            <mxPoint x="770" y="1030" as="sourcePoint" />
            <mxPoint x="907" y="1080" as="targetPoint" />
          </mxGeometry>
        </mxCell>
        <mxCell id="S4HPG_5OyXTRfToOtr7x-12" value="&lt;u&gt;UserID&lt;/u&gt;" style="ellipse;whiteSpace=wrap;html=1;align=center;" vertex="1" parent="1">
          <mxGeometry x="650" y="200" width="100" height="40" as="geometry" />
        </mxCell>
        <mxCell id="S4HPG_5OyXTRfToOtr7x-13" value="" style="endArrow=none;html=1;rounded=0;entryX=0.5;entryY=1;entryDx=0;entryDy=0;exitX=0.5;exitY=0;exitDx=0;exitDy=0;" edge="1" parent="1" source="jdo_Bs8H3Nefda1nTduL-1" target="S4HPG_5OyXTRfToOtr7x-15">
          <mxGeometry relative="1" as="geometry">
            <mxPoint x="827" y="270" as="sourcePoint" />
            <mxPoint x="870" y="230" as="targetPoint" />
          </mxGeometry>
        </mxCell>
        <mxCell id="S4HPG_5OyXTRfToOtr7x-14" value="" style="endArrow=none;html=1;rounded=0;exitX=0.5;exitY=1;exitDx=0;exitDy=0;entryX=0.5;entryY=0;entryDx=0;entryDy=0;" edge="1" parent="1" source="S4HPG_5OyXTRfToOtr7x-12" target="jdo_Bs8H3Nefda1nTduL-1">
          <mxGeometry relative="1" as="geometry">
            <mxPoint x="700" y="250" as="sourcePoint" />
            <mxPoint x="860" y="250" as="targetPoint" />
          </mxGeometry>
        </mxCell>
        <mxCell id="S4HPG_5OyXTRfToOtr7x-15" value="Name" style="ellipse;whiteSpace=wrap;html=1;align=center;" vertex="1" parent="1">
          <mxGeometry x="750" y="180" width="100" height="40" as="geometry" />
        </mxCell>
        <mxCell id="S4HPG_5OyXTRfToOtr7x-16" value="Email" style="ellipse;whiteSpace=wrap;html=1;align=center;" vertex="1" parent="1">
          <mxGeometry x="850" y="200" width="100" height="40" as="geometry" />
        </mxCell>
        <mxCell id="S4HPG_5OyXTRfToOtr7x-17" value="" style="endArrow=none;html=1;rounded=0;entryX=0.5;entryY=1;entryDx=0;entryDy=0;exitX=0.5;exitY=0;exitDx=0;exitDy=0;" edge="1" parent="1" source="jdo_Bs8H3Nefda1nTduL-1" target="S4HPG_5OyXTRfToOtr7x-16">
          <mxGeometry relative="1" as="geometry">
            <mxPoint x="834" y="280" as="sourcePoint" />
            <mxPoint x="837" y="230" as="targetPoint" />
          </mxGeometry>
        </mxCell>
        <mxCell id="S4HPG_5OyXTRfToOtr7x-18" value="Starting price" style="ellipse;whiteSpace=wrap;html=1;align=center;" vertex="1" parent="1">
          <mxGeometry x="1010" y="810" width="100" height="40" as="geometry" />
        </mxCell>
        <mxCell id="S4HPG_5OyXTRfToOtr7x-19" value="Reserve price" style="ellipse;whiteSpace=wrap;html=1;align=center;" vertex="1" parent="1">
          <mxGeometry x="922" y="770" width="100" height="40" as="geometry" />
        </mxCell>
        <mxCell id="S4HPG_5OyXTRfToOtr7x-20" value="" style="endArrow=none;html=1;rounded=0;exitX=0.5;exitY=1;exitDx=0;exitDy=0;entryX=0.5;entryY=0;entryDx=0;entryDy=0;" edge="1" parent="1" source="jdo_Bs8H3Nefda1nTduL-21" target="S4HPG_5OyXTRfToOtr7x-19">
          <mxGeometry relative="1" as="geometry">
            <mxPoint x="840" y="730" as="sourcePoint" />
            <mxPoint x="1000" y="730" as="targetPoint" />
          </mxGeometry>
        </mxCell>
        <mxCell id="S4HPG_5OyXTRfToOtr7x-21" value="" style="endArrow=none;html=1;rounded=0;exitX=0.5;exitY=1;exitDx=0;exitDy=0;entryX=0.5;entryY=0;entryDx=0;entryDy=0;" edge="1" parent="1" source="jdo_Bs8H3Nefda1nTduL-21" target="S4HPG_5OyXTRfToOtr7x-18">
          <mxGeometry relative="1" as="geometry">
            <mxPoint x="925" y="710" as="sourcePoint" />
            <mxPoint x="987" y="840" as="targetPoint" />
          </mxGeometry>
        </mxCell>
        <mxCell id="S4HPG_5OyXTRfToOtr7x-22" value="Bids/buys" style="shape=rhombus;double=1;perimeter=rhombusPerimeter;whiteSpace=wrap;html=1;align=center;shadow=0;sketch=0;strokeColor=#000000;gradientColor=none;" vertex="1" parent="1">
          <mxGeometry x="580" y="570" width="120" height="60" as="geometry" />
        </mxCell>
        <mxCell id="S4HPG_5OyXTRfToOtr7x-23" value="Bid timestamp" style="ellipse;whiteSpace=wrap;html=1;align=center;" vertex="1" parent="1">
          <mxGeometry x="480" y="730" width="100" height="40" as="geometry" />
        </mxCell>
        <mxCell id="S4HPG_5OyXTRfToOtr7x-24" value="" style="endArrow=none;html=1;rounded=0;exitX=0.5;exitY=1;exitDx=0;exitDy=0;entryX=0.5;entryY=0;entryDx=0;entryDy=0;" edge="1" parent="1" source="S4HPG_5OyXTRfToOtr7x-22" target="S4HPG_5OyXTRfToOtr7x-23">
          <mxGeometry relative="1" as="geometry">
            <mxPoint x="830" y="640" as="sourcePoint" />
            <mxPoint x="990" y="640" as="targetPoint" />
          </mxGeometry>
        </mxCell>
        <mxCell id="S4HPG_5OyXTRfToOtr7x-25" value="adds to watchlist" style="shape=rhombus;double=1;perimeter=rhombusPerimeter;whiteSpace=wrap;html=1;align=center;shadow=0;sketch=0;strokeColor=#000000;gradientColor=none;" vertex="1" parent="1">
          <mxGeometry x="340" y="810" width="150" height="95" as="geometry" />
        </mxCell>
        <mxCell id="S4HPG_5OyXTRfToOtr7x-26" value="" style="edgeStyle=entityRelationEdgeStyle;fontSize=12;html=1;endArrow=ERzeroToMany;endFill=1;exitX=1;exitY=0.5;exitDx=0;exitDy=0;entryX=0;entryY=0.5;entryDx=0;entryDy=0;" edge="1" parent="1" source="S4HPG_5OyXTRfToOtr7x-25" target="jdo_Bs8H3Nefda1nTduL-21">
          <mxGeometry width="100" height="100" relative="1" as="geometry">
            <mxPoint x="740" y="780" as="sourcePoint" />
            <mxPoint x="840" y="680" as="targetPoint" />
          </mxGeometry>
        </mxCell>
        <mxCell id="S4HPG_5OyXTRfToOtr7x-28" value="" style="fontSize=12;html=1;endArrow=ERzeroToMany;endFill=1;entryX=0;entryY=0.5;entryDx=0;entryDy=0;exitX=0.5;exitY=0;exitDx=0;exitDy=0;edgeStyle=entityRelationEdgeStyle;" edge="1" parent="1" source="S4HPG_5OyXTRfToOtr7x-25" target="jdo_Bs8H3Nefda1nTduL-10">
          <mxGeometry width="100" height="100" relative="1" as="geometry">
            <mxPoint x="310" y="790" as="sourcePoint" />
            <mxPoint x="410" y="690" as="targetPoint" />
          </mxGeometry>
        </mxCell>
      </root>
    </mxGraphModel>
  </diagram>
  <diagram id="J9CAZWFjR4xJngpeoqRt" name="Page-2">
    <mxGraphModel dx="946" dy="664" grid="1" gridSize="10" guides="1" tooltips="1" connect="1" arrows="1" fold="1" page="1" pageScale="1" pageWidth="827" pageHeight="1169" math="0" shadow="0">
      <root>
        <mxCell id="o34kinmAR1xzIVLFPBfJ-0" />
        <mxCell id="o34kinmAR1xzIVLFPBfJ-1" parent="o34kinmAR1xzIVLFPBfJ-0" />
      </root>
    </mxGraphModel>
  </diagram>
  <diagram id="a1-7Po7T-IxzWvLei48A" name="Page-2">
    <mxGraphModel dx="946" dy="664" grid="1" gridSize="10" guides="1" tooltips="1" connect="1" arrows="1" fold="1" page="1" pageScale="1" pageWidth="1654" pageHeight="1169" math="0" shadow="0">
      <root>
        <mxCell id="RaAiz9dIJbC09rnY_SPG-0" />
        <mxCell id="RaAiz9dIJbC09rnY_SPG-1" parent="RaAiz9dIJbC09rnY_SPG-0" />
      </root>
    </mxGraphModel>
  </diagram>
</mxfile>
